<mxfile host="app.diagrams.net" agent="Mozilla/5.0 (Windows NT 10.0; Win64; x64) AppleWebKit/537.36 (KHTML, like Gecko) Chrome/130.0.0.0 Safari/537.36" version="24.8.3">
  <diagram name="Page-1" id="-eAeWA-Fx6aUxaEBFxD-">
    <mxGraphModel dx="1120" dy="468" grid="1" gridSize="10" guides="1" tooltips="1" connect="1" arrows="1" fold="1" page="1" pageScale="1" pageWidth="850" pageHeight="1100" math="0" shadow="0">
      <root>
        <mxCell id="0" />
        <mxCell id="1" parent="0" />
        <mxCell id="d0Jg5VP_g_9FWG_bOwil-1" value="start" style="ellipse;whiteSpace=wrap;html=1;" vertex="1" parent="1">
          <mxGeometry x="305" y="20" width="120" height="70" as="geometry" />
        </mxCell>
        <mxCell id="d0Jg5VP_g_9FWG_bOwil-2" value="" style="shape=flexArrow;endArrow=classic;html=1;rounded=0;" edge="1" parent="1">
          <mxGeometry width="50" height="50" relative="1" as="geometry">
            <mxPoint x="364.5" y="90" as="sourcePoint" />
            <mxPoint x="365" y="140" as="targetPoint" />
          </mxGeometry>
        </mxCell>
        <mxCell id="d0Jg5VP_g_9FWG_bOwil-3" value="input a and b" style="rounded=0;whiteSpace=wrap;html=1;" vertex="1" parent="1">
          <mxGeometry x="305" y="140" width="120" height="40" as="geometry" />
        </mxCell>
        <mxCell id="d0Jg5VP_g_9FWG_bOwil-7" value="" style="shape=flexArrow;endArrow=classic;html=1;rounded=0;exitX=0.5;exitY=1;exitDx=0;exitDy=0;" edge="1" parent="1" source="d0Jg5VP_g_9FWG_bOwil-3">
          <mxGeometry width="50" height="50" relative="1" as="geometry">
            <mxPoint x="400" y="270" as="sourcePoint" />
            <mxPoint x="365" y="240" as="targetPoint" />
          </mxGeometry>
        </mxCell>
        <mxCell id="d0Jg5VP_g_9FWG_bOwil-10" style="edgeStyle=orthogonalEdgeStyle;rounded=0;orthogonalLoop=1;jettySize=auto;html=1;" edge="1" parent="1" source="d0Jg5VP_g_9FWG_bOwil-8">
          <mxGeometry relative="1" as="geometry">
            <mxPoint x="180" y="340" as="targetPoint" />
          </mxGeometry>
        </mxCell>
        <mxCell id="d0Jg5VP_g_9FWG_bOwil-11" style="edgeStyle=orthogonalEdgeStyle;rounded=0;orthogonalLoop=1;jettySize=auto;html=1;" edge="1" parent="1" source="d0Jg5VP_g_9FWG_bOwil-8">
          <mxGeometry relative="1" as="geometry">
            <mxPoint x="590" y="330" as="targetPoint" />
          </mxGeometry>
        </mxCell>
        <mxCell id="d0Jg5VP_g_9FWG_bOwil-8" value="if a &amp;gt;b" style="rhombus;whiteSpace=wrap;html=1;" vertex="1" parent="1">
          <mxGeometry x="325" y="240" width="80" height="40" as="geometry" />
        </mxCell>
        <mxCell id="d0Jg5VP_g_9FWG_bOwil-20" style="edgeStyle=orthogonalEdgeStyle;rounded=0;orthogonalLoop=1;jettySize=auto;html=1;entryX=0.5;entryY=0;entryDx=0;entryDy=0;" edge="1" parent="1" source="d0Jg5VP_g_9FWG_bOwil-12" target="d0Jg5VP_g_9FWG_bOwil-17">
          <mxGeometry relative="1" as="geometry" />
        </mxCell>
        <mxCell id="d0Jg5VP_g_9FWG_bOwil-12" value="print b" style="shape=parallelogram;perimeter=parallelogramPerimeter;whiteSpace=wrap;html=1;fixedSize=1;" vertex="1" parent="1">
          <mxGeometry x="110" y="340" width="120" height="60" as="geometry" />
        </mxCell>
        <mxCell id="d0Jg5VP_g_9FWG_bOwil-15" value="print a" style="shape=parallelogram;perimeter=parallelogramPerimeter;whiteSpace=wrap;html=1;fixedSize=1;" vertex="1" parent="1">
          <mxGeometry x="530" y="330" width="120" height="60" as="geometry" />
        </mxCell>
        <mxCell id="d0Jg5VP_g_9FWG_bOwil-17" value="stop" style="ellipse;whiteSpace=wrap;html=1;" vertex="1" parent="1">
          <mxGeometry x="365" y="420" width="120" height="80" as="geometry" />
        </mxCell>
        <mxCell id="d0Jg5VP_g_9FWG_bOwil-19" style="edgeStyle=orthogonalEdgeStyle;rounded=0;orthogonalLoop=1;jettySize=auto;html=1;entryX=0.992;entryY=0.725;entryDx=0;entryDy=0;entryPerimeter=0;" edge="1" parent="1" source="d0Jg5VP_g_9FWG_bOwil-15" target="d0Jg5VP_g_9FWG_bOwil-17">
          <mxGeometry relative="1" as="geometry" />
        </mxCell>
        <mxCell id="d0Jg5VP_g_9FWG_bOwil-21" value="no" style="text;html=1;align=center;verticalAlign=middle;resizable=0;points=[];autosize=1;strokeColor=none;fillColor=none;" vertex="1" parent="1">
          <mxGeometry x="190" y="218" width="40" height="30" as="geometry" />
        </mxCell>
        <mxCell id="d0Jg5VP_g_9FWG_bOwil-22" value="yes" style="text;html=1;align=center;verticalAlign=middle;resizable=0;points=[];autosize=1;strokeColor=none;fillColor=none;" vertex="1" parent="1">
          <mxGeometry x="460" y="208" width="40" height="30" as="geometry" />
        </mxCell>
      </root>
    </mxGraphModel>
  </diagram>
</mxfile>
